<?xml version="1.0" encoding="utf-8"?>
<!-- Generator: Adobe Illustrator 22.1.0, SVG Export Plug-In . SVG Version: 6.00 Build 0)  -->
<svg version="1.1" id="Слой_1" xmlns="http://www.w3.org/2000/svg" xmlns:xlink="http://www.w3.org/1999/xlink" x="0px" y="0px"
	 viewBox="0 0 146 146" style="enable-background:new 0 0 146 146;" xml:space="preserve">
<style type="text/css">
	.st0{fill:#FB5757;}
	.st1{fill:#D3D3D3;}
	.st2{fill:#E9E9E9;}
	.st3{fill:#D2D2D2;}
	.st4{fill:#AAAAAA;}
	.st5{fill:#3F3F3F;}
	.st6{fill:#F1F1F1;}
	.st7{clip-path:url(#SVGID_2_);fill:#3F3F3F;}
	.st8{clip-path:url(#SVGID_4_);fill:#D2D2D2;}
	.st9{clip-path:url(#SVGID_6_);fill:#F1F1F1;}
	.st10{clip-path:url(#SVGID_8_);fill:#ABABAB;}
	.st11{clip-path:url(#SVGID_10_);fill:#ABABAB;}
	.st12{clip-path:url(#SVGID_12_);fill:#D3D3D3;}
	.st13{clip-path:url(#SVGID_14_);fill:#3F3F3F;}
</style>
<g id="Слой_2">
	<g>
		<path class="st0" d="M109.2,41v71h-71V41H109.2 M118.1,32h-89v89h89V32L118.1,32z"/>
	</g>
</g>
<polygon class="st1" points="100.3,24.8 88,28.1 113.2,122.5 124.8,115.7 "/>
<polygon class="st1" points="110.5,112.5 110.5,125.2 116.4,125.2 125.2,117.2 122.8,108.5 "/>
<rect x="32.3" y="24.8" class="st2" width="68.1" height="100.4"/>
<polygon class="st3" points="36.7,24.8 36.7,83.9 38.6,86.1 94.2,86.1 96.1,83.9 96.1,24.8 "/>
<polygon class="st4" points="32.3,24.8 39.8,54.1 92.9,54.1 100.4,24.8 "/>
<rect x="38.8" y="106.3" class="st5" width="55.1" height="1"/>
<polygon class="st5" points="38.8,106.3 32.3,109.3 32.3,110.4 38.8,107.4 "/>
<polygon class="st5" points="93.9,106.3 100.4,109.3 100.4,110.4 93.9,107.4 "/>
<rect x="65.8" y="61.1" class="st6" width="1" height="2.1"/>
<g>
	<g>
		<defs>
			<rect id="SVGID_1_" x="23.3" y="24.8" width="101.8" height="100.4"/>
		</defs>
		<clipPath id="SVGID_2_">
			<use xlink:href="#SVGID_1_"  style="overflow:visible;"/>
		</clipPath>
		<path class="st7" d="M61.4,44.4v24.7l1.5,8.9h6.8l1.5-8.9V44.4H61.4z M66.3,62.9c-0.4,0-0.8-0.4-0.8-0.8s0.4-0.8,0.8-0.8
			c0.4,0,0.8,0.4,0.8,0.8S66.8,62.9,66.3,62.9"/>
	</g>
	<g>
		<defs>
			<rect id="SVGID_3_" x="23.3" y="24.8" width="101.8" height="100.4"/>
		</defs>
		<clipPath id="SVGID_4_">
			<use xlink:href="#SVGID_3_"  style="overflow:visible;"/>
		</clipPath>
		<path class="st8" d="M67.1,69.1c0,0.4-0.4,0.8-0.8,0.8c-0.4,0-0.8-0.4-0.8-0.8c0-0.4,0.4-0.8,0.8-0.8S67.1,68.7,67.1,69.1"/>
	</g>
	<g>
		<defs>
			<rect id="SVGID_5_" x="23.3" y="24.8" width="101.8" height="100.4"/>
		</defs>
		<clipPath id="SVGID_6_">
			<use xlink:href="#SVGID_5_"  style="overflow:visible;"/>
		</clipPath>
		<rect x="65.8" y="56.2" class="st9" width="1" height="5.6"/>
	</g>
	<g>
		<defs>
			<rect id="SVGID_7_" x="23.3" y="24.8" width="101.8" height="100.4"/>
		</defs>
		<clipPath id="SVGID_8_">
			<use xlink:href="#SVGID_7_"  style="overflow:visible;"/>
		</clipPath>
		<polygon class="st10" points="32.3,52.2 26.4,48.6 25.6,37.9 26.4,26.6 32.3,25.5 		"/>
	</g>
	<g>
		<defs>
			<rect id="SVGID_9_" x="23.3" y="24.8" width="101.8" height="100.4"/>
		</defs>
		<clipPath id="SVGID_10_">
			<use xlink:href="#SVGID_9_"  style="overflow:visible;"/>
		</clipPath>
		<polygon class="st11" points="23.3,36.8 24.7,26.7 25.4,26 32.3,24.8 32.3,25.5 25.9,26.6 25.4,27.1 24.1,36.8 		"/>
	</g>
	<g>
		<defs>
			<rect id="SVGID_11_" x="23.3" y="24.8" width="101.8" height="100.4"/>
		</defs>
		<clipPath id="SVGID_12_">
			<use xlink:href="#SVGID_11_"  style="overflow:visible;"/>
		</clipPath>
		<rect x="100.4" y="112.5" class="st12" width="14.1" height="12.7"/>
	</g>
	<g>
		<defs>
			
				<rect id="SVGID_13_" x="20.5" y="34.9" transform="matrix(0.9659 -0.2588 0.2588 0.9659 -19.5886 21.3808)" width="101.8" height="100.4"/>
		</defs>
		<clipPath id="SVGID_14_">
			<use xlink:href="#SVGID_13_"  style="overflow:visible;"/>
		</clipPath>
		
			<rect x="104.4" y="90.1" transform="matrix(0.9659 -0.2588 0.2588 0.9659 -19.7087 31.9007)" class="st13" width="13.8" height="1.5"/>
	</g>
</g>
</svg>
