<?xml version="1.0" encoding="utf-8"?>
<!-- Generator: Adobe Illustrator 22.1.0, SVG Export Plug-In . SVG Version: 6.00 Build 0)  -->
<svg version="1.1" xmlns="http://www.w3.org/2000/svg" xmlns:xlink="http://www.w3.org/1999/xlink" x="0px" y="0px"
	 viewBox="0 0 146 146" style="enable-background:new 0 0 146 146;" xml:space="preserve">
<style type="text/css">
	.st0{fill:#FB5757;}
	.st1{fill:#575656;}
	.st2{fill:#19191A;}
	.st3{fill:#3B3C3B;}
	.st4{fill:#EAEAEA;}
</style>
<g id="Слой_2">
	<path class="st0" d="M108.5,37.5v71h-71v-71H108.5 M117.5,28.5h-89v89h89V28.5L117.5,28.5z"/>
</g>
<g id="Слой_1">
	<polygon class="st1" points="80,12.2 73.6,28.3 73.6,49.1 72.3,52.5 72.3,118 94.1,118 94.1,52.5 92.8,49.1 92.8,28.3 86.4,12.2 	
		"/>
	<rect x="72.3" y="120.5" class="st2" width="21.8" height="2.7"/>
	<rect x="75.5" y="118" class="st3" width="15.4" height="2.7"/>
	<polygon class="st3" points="81.6,12.2 80.3,20.3 81.6,28.3 84.8,28.3 86.1,20.3 84.8,12.2 	"/>
	<rect x="73.6" y="28.3" class="st4" width="19.3" height="3.6"/>
	<polygon class="st1" points="28.8,59 25.8,62.3 25.8,126.3 55.4,126.3 55.4,62.3 52.5,59 	"/>
	<rect x="25.8" y="128.8" class="st2" width="29.6" height="2.7"/>
	<rect x="27.3" y="126.3" class="st3" width="26.7" height="2.7"/>
	<rect x="25.8" y="62.9" class="st4" width="29.6" height="4.5"/>
	<polygon class="st1" points="111,76.5 104.5,92.6 104.5,130.9 123.8,130.9 123.8,92.6 117.4,76.5 	"/>
	<rect x="104.5" y="133.5" class="st2" width="19.3" height="2.7"/>
	<rect x="106.5" y="130.9" class="st3" width="15.4" height="2.7"/>
	<polygon class="st3" points="112.6,76.5 111.3,84.5 112.6,92.6 115.8,92.6 117.1,84.5 115.8,76.5 	"/>
	<rect x="104.5" y="92.6" class="st4" width="19.3" height="3.6"/>
</g>
</svg>
