<?xml version="1.0" encoding="utf-8"?>
<!-- Generator: Adobe Illustrator 22.1.0, SVG Export Plug-In . SVG Version: 6.00 Build 0)  -->
<svg version="1.1" id="Слой_1" xmlns="http://www.w3.org/2000/svg" xmlns:xlink="http://www.w3.org/1999/xlink" x="0px" y="0px"
	 viewBox="0 0 146 146" style="enable-background:new 0 0 146 146;" xml:space="preserve">
<style type="text/css">
	.st0{fill:#FB5757;}
	.st1{clip-path:url(#SVGID_2_);fill:#3B3C3B;}
	.st2{clip-path:url(#SVGID_4_);fill:#3B3C3B;}
	.st3{clip-path:url(#SVGID_6_);fill:#19191A;}
	.st4{clip-path:url(#SVGID_8_);fill:#19191A;}
	.st5{clip-path:url(#SVGID_10_);fill:#3B3C3B;}
	.st6{clip-path:url(#SVGID_12_);fill:#19191A;}
	.st7{clip-path:url(#SVGID_14_);fill:#19191A;}
	.st8{clip-path:url(#SVGID_16_);fill:#575656;}
	.st9{clip-path:url(#SVGID_18_);fill:#19191A;}
	.st10{clip-path:url(#SVGID_20_);fill:#3B3C3B;}
	.st11{clip-path:url(#SVGID_22_);fill:#3B3C3B;}
	.st12{clip-path:url(#SVGID_24_);fill:#3B3C3B;}
	.st13{clip-path:url(#SVGID_26_);fill:#3B3C3B;}
	.st14{clip-path:url(#SVGID_28_);fill:#19191A;}
	.st15{clip-path:url(#SVGID_30_);fill:#575656;}
	.st16{clip-path:url(#SVGID_32_);fill:#19191A;}
	.st17{clip-path:url(#SVGID_34_);fill:#3B3C3B;}
	.st18{clip-path:url(#SVGID_36_);fill:#3B3C3B;}
	.st19{clip-path:url(#SVGID_38_);fill:#3B3C3B;}
	.st20{clip-path:url(#SVGID_40_);fill:#3B3C3B;}
</style>
<g>
	<path class="st0" d="M108.5,37.5v71h-71v-71H108.5 M117.5,28.5h-89v89h89V28.5L117.5,28.5z"/>
</g>
<g>
	<g>
		<defs>
			<rect id="SVGID_1_" x="12.4" y="12.9" width="126.5" height="120.3"/>
		</defs>
		<clipPath id="SVGID_2_">
			<use xlink:href="#SVGID_1_"  style="overflow:visible;"/>
		</clipPath>
		<path class="st1" d="M107.6,69.4c-1.4-2-2-4.4-1.6-6.9l0.8-4.9l-3.6-3.5c-0.1-0.1-0.1-0.1-0.2-0.2c-27.5,23-30.7,59.8-30.3,77.8
			c0,0.7,0.5,1.2,1.2,1.3c0.7,0.1,1.2-0.4,1.4-1C82.9,95,97.2,77.5,107.6,69.4"/>
	</g>
	<g>
		<defs>
			<rect id="SVGID_3_" x="12.4" y="12.9" width="126.5" height="120.3"/>
		</defs>
		<clipPath id="SVGID_4_">
			<use xlink:href="#SVGID_3_"  style="overflow:visible;"/>
		</clipPath>
		<path class="st2" d="M53.6,44.7l-8.3,1.9l-3.2,7.9c-0.1,0.2-0.1,0.3-0.2,0.4c13,18.3,19.7,55.8,22.4,74.7c0.1,0.5,0.5,0.8,0.9,0.7
			c0.5-0.1,0.8-0.4,0.8-0.8c0.3-40.7-5.9-67.9-12.2-84.8C53.7,44.7,53.7,44.7,53.6,44.7"/>
	</g>
	<g>
		<defs>
			<rect id="SVGID_5_" x="12.4" y="12.9" width="126.5" height="120.3"/>
		</defs>
		<clipPath id="SVGID_6_">
			<use xlink:href="#SVGID_5_"  style="overflow:visible;"/>
		</clipPath>
		<path class="st3" d="M115.7,54.7l-1.6,9.2c-0.1,0.4,0.1,0.7,0.4,1c0.2,0.1,0.4,0.2,0.6,0.2c0.2,0,0.3-0.1,0.5-0.1l8.3-4.4l8.3,4.4
			c0.2,0.1,0.3,0.1,0.5,0.1c0.2,0,0.4-0.1,0.6-0.2c0.3-0.2,0.5-0.6,0.4-1l-1.6-9.2l6.7-6.5c0.3-0.3,0.4-0.7,0.3-1
			c-0.1-0.4-0.4-0.6-0.8-0.7l-9.3-1.3l-4.1-8.4c-0.2-0.3-0.5-0.6-0.9-0.6c-0.4,0-0.7,0.2-0.9,0.6l-4.1,8.4l-9.3,1.3
			c-0.4,0.1-0.7,0.3-0.8,0.7c-0.1,0.4,0,0.7,0.3,1L115.7,54.7z"/>
	</g>
	<g>
		<defs>
			<rect id="SVGID_7_" x="12.4" y="12.9" width="126.5" height="120.3"/>
		</defs>
		<clipPath id="SVGID_8_">
			<use xlink:href="#SVGID_7_"  style="overflow:visible;"/>
		</clipPath>
		<path class="st4" d="M51.8,36.7c0.4-0.1,0.7-0.4,0.7-0.7c0.1-0.4-0.1-0.7-0.3-1l-9.8-8.2L43.5,14c0.1-0.4-0.2-0.7-0.5-0.9
			c-0.2-0.1-0.3-0.2-0.5-0.2c-0.2,0-0.4,0.1-0.5,0.2l-10.9,6.8l-11.8-5.1c-0.1-0.1-0.3-0.1-0.4-0.1c-0.2,0-0.5,0.1-0.6,0.3
			c-0.3,0.3-0.4,0.6-0.3,1l3.1,12.5L12.7,38c-0.3,0.3-0.3,0.7-0.2,1c0.2,0.4,0.5,0.6,0.8,0.6l12.8,0.9l6.5,11.1
			c0.2,0.3,0.5,0.5,0.8,0.5c0.1,0,0.1,0,0.1,0c0.4-0.1,0.7-0.3,0.8-0.6l4.8-11.9L51.8,36.7z"/>
	</g>
	<g>
		<defs>
			<rect id="SVGID_9_" x="12.4" y="12.9" width="126.5" height="120.3"/>
		</defs>
		<clipPath id="SVGID_10_">
			<use xlink:href="#SVGID_9_"  style="overflow:visible;"/>
		</clipPath>
		<path class="st5" d="M80.1,37.3l-0.8-1.9l-2-0.4c-1.4-0.3-2.8-1-3.9-1.9c-3.1,8.4-5.4,21.4-3,40.9c0.1,1,1.6,1,1.8,0
			c0.9-9.1,3.1-23.7,8.7-35.1C80.6,38.4,80.3,37.9,80.1,37.3"/>
	</g>
	<g>
		<defs>
			<rect id="SVGID_11_" x="12.4" y="12.9" width="126.5" height="120.3"/>
		</defs>
		<clipPath id="SVGID_12_">
			<use xlink:href="#SVGID_11_"  style="overflow:visible;"/>
		</clipPath>
		<path class="st6" d="M82.9,14.9l0.6,6.3l-4.8,4.1c-0.3,0.3-0.4,0.6-0.3,1c0.1,0.4,0.4,0.6,0.7,0.7l6.2,1.3l2.4,5.9
			c0.2,0.4,0.5,0.6,0.8,0.6h0.1c0.4,0,0.7-0.2,0.8-0.5l3.2-5.5l6.4-0.6c0.4-0.1,0.7-0.3,0.8-0.6c0.2-0.4,0.1-0.7-0.2-1l-4.2-4.7
			l1.5-6.1c0.1-0.4-0.1-0.7-0.3-1c-0.2-0.2-0.4-0.2-0.6-0.2c-0.2,0-0.3,0.1-0.4,0.1l-5.8,2.6L84.3,14c-0.2-0.1-0.4-0.2-0.5-0.2
			c-0.2,0-0.4,0.1-0.5,0.2C83,14.2,82.8,14.5,82.9,14.9"/>
	</g>
	<g>
		<defs>
			<rect id="SVGID_13_" x="12.4" y="12.9" width="126.5" height="120.3"/>
		</defs>
		<clipPath id="SVGID_14_">
			<use xlink:href="#SVGID_13_"  style="overflow:visible;"/>
		</clipPath>
		<polygon class="st7" points="13.9,89.3 16.8,76.9 29.3,79.8 		"/>
	</g>
	<g>
		<defs>
			
				<rect id="SVGID_15_" x="-7.2" y="-7.7" transform="matrix(0.8518 -0.5239 0.5239 0.8518 -19.1404 37.1466)" width="126.5" height="120.3"/>
		</defs>
		<clipPath id="SVGID_16_">
			<use xlink:href="#SVGID_15_"  style="overflow:visible;"/>
		</clipPath>
		<rect x="22" y="82.4" transform="matrix(0.8518 -0.5239 0.5239 0.8518 -46.6421 29.8575)" class="st8" width="15" height="30"/>
	</g>
	<g>
		<defs>
			
				<rect id="SVGID_17_" x="-16.6" y="5" transform="matrix(0.8388 -0.5444 0.5444 0.8388 -27.9624 35.9079)" width="126.5" height="120.3"/>
		</defs>
		<clipPath id="SVGID_18_">
			<use xlink:href="#SVGID_17_"  style="overflow:visible;"/>
		</clipPath>
		
			<rect x="46.9" y="102.7" transform="matrix(0.8388 -0.5444 0.5444 0.8388 -56.5661 45.1287)" class="st9" width="2.1" height="30.8"/>
	</g>
	<g>
		<defs>
			<rect id="SVGID_19_" x="12.4" y="12.9" width="126.5" height="120.3"/>
		</defs>
		<clipPath id="SVGID_20_">
			<use xlink:href="#SVGID_19_"  style="overflow:visible;"/>
		</clipPath>
		<polygon class="st10" points="15.2,88.5 21.6,84.6 19.1,94.9 		"/>
	</g>
	<g>
		<defs>
			<rect id="SVGID_21_" x="12.4" y="12.9" width="126.5" height="120.3"/>
		</defs>
		<clipPath id="SVGID_22_">
			<use xlink:href="#SVGID_21_"  style="overflow:visible;"/>
		</clipPath>
		<polygon class="st11" points="26.7,81.4 28,80.7 30.3,84.5 25.4,105.1 22.3,100 		"/>
	</g>
	<g>
		<defs>
			<rect id="SVGID_23_" x="12.4" y="12.9" width="126.5" height="120.3"/>
		</defs>
		<clipPath id="SVGID_24_">
			<use xlink:href="#SVGID_23_"  style="overflow:visible;"/>
		</clipPath>
		<polygon class="st12" points="33.5,89.6 28.5,110.2 30.9,114.1 32.2,113.3 36.6,94.7 		"/>
	</g>
	<g>
		<defs>
			<rect id="SVGID_25_" x="12.4" y="12.9" width="126.5" height="120.3"/>
		</defs>
		<clipPath id="SVGID_26_">
			<use xlink:href="#SVGID_25_"  style="overflow:visible;"/>
		</clipPath>
		<polygon class="st13" points="39.8,99.8 37.3,110.1 43.7,106.2 		"/>
	</g>
	<g>
		<defs>
			<rect id="SVGID_27_" x="12.4" y="12.9" width="126.5" height="120.3"/>
		</defs>
		<clipPath id="SVGID_28_">
			<use xlink:href="#SVGID_27_"  style="overflow:visible;"/>
		</clipPath>
		<polygon class="st14" points="134.8,85.8 131.5,72 117.7,75.3 		"/>
	</g>
	<g>
		<defs>
			
				<rect id="SVGID_29_" x="13.7" y="58.9" transform="matrix(0.5239 -0.8518 0.8518 0.5239 -64.7129 122.2388)" width="126.5" height="120.3"/>
		</defs>
		<clipPath id="SVGID_30_">
			<use xlink:href="#SVGID_29_"  style="overflow:visible;"/>
		</clipPath>
		
			<rect x="100.7" y="86.4" transform="matrix(0.5239 -0.8518 0.8518 0.5239 -24.8634 145.2123)" class="st15" width="33.6" height="16.8"/>
	</g>
	<g>
		<defs>
			
				<rect id="SVGID_31_" x="-15.8" y="51.1" transform="matrix(0.5444 -0.8388 0.8388 0.5444 -71.6676 90.5196)" width="126.5" height="120.3"/>
		</defs>
		<clipPath id="SVGID_32_">
			<use xlink:href="#SVGID_31_"  style="overflow:visible;"/>
		</clipPath>
		
			<rect x="79.6" y="116.9" transform="matrix(0.5444 -0.8388 0.8388 0.5444 -54.972 134.9642)" class="st16" width="34.4" height="2.4"/>
	</g>
	<g>
		<defs>
			<rect id="SVGID_33_" x="12.4" y="12.9" width="126.5" height="120.3"/>
		</defs>
		<clipPath id="SVGID_34_">
			<use xlink:href="#SVGID_33_"  style="overflow:visible;"/>
		</clipPath>
		<polygon class="st17" points="133.4,84.9 126.3,80.6 129,92.1 		"/>
	</g>
	<g>
		<defs>
			<rect id="SVGID_35_" x="12.4" y="12.9" width="126.5" height="120.3"/>
		</defs>
		<clipPath id="SVGID_36_">
			<use xlink:href="#SVGID_35_"  style="overflow:visible;"/>
		</clipPath>
		<polygon class="st18" points="120.6,77 119.1,76.1 116.5,80.5 122,103.5 125.5,97.8 		"/>
	</g>
	<g>
		<defs>
			<rect id="SVGID_37_" x="12.4" y="12.9" width="126.5" height="120.3"/>
		</defs>
		<clipPath id="SVGID_38_">
			<use xlink:href="#SVGID_37_"  style="overflow:visible;"/>
		</clipPath>
		<polygon class="st19" points="113,86.1 118.4,109.3 115.8,113.5 114.4,112.7 109.4,91.9 		"/>
	</g>
	<g>
		<defs>
			<rect id="SVGID_39_" x="12.4" y="12.9" width="126.5" height="120.3"/>
		</defs>
		<clipPath id="SVGID_40_">
			<use xlink:href="#SVGID_39_"  style="overflow:visible;"/>
		</clipPath>
		<polygon class="st20" points="105.9,97.6 108.7,109.2 101.5,104.7 		"/>
	</g>
</g>
</svg>
