<?xml version="1.0" encoding="utf-8"?>
<!-- Generator: Adobe Illustrator 22.1.0, SVG Export Plug-In . SVG Version: 6.00 Build 0)  -->
<svg version="1.1" id="Слой_1" xmlns="http://www.w3.org/2000/svg" xmlns:xlink="http://www.w3.org/1999/xlink" x="0px" y="0px"
	 viewBox="0 0 146 146" style="enable-background:new 0 0 146 146;" xml:space="preserve">
<style type="text/css">
	.st0{fill:#FB5757;}
	.st1{fill:#3D3D3D;}
	.st2{fill:#575757;}
	.st3{fill:#D3D3D3;}
	.st4{fill:#FFFFFF;}
</style>
<g>
	<path class="st0" d="M109.2,38v71h-71V38H109.2 M118.1,29h-89v89h89V29L118.1,29z"/>
</g>
<g>
	
		<rect x="43.4" y="55.5" transform="matrix(0.2588 -0.9659 0.9659 0.2588 -26.5693 89.0414)" class="st1" width="2.7" height="12.7"/>
	<path class="st2" d="M9.4,86.9l2.1,3.6l2.4-2.4l10.5,1.2l15.2,24.2l6.5-0.1L62,97.5l-2.4-4l-2.3,2.3L46.6,79l-0.4-3.8l13.7-13.7
		l1.2-4.5l-3.7-12.4l13.6-13.6v-3.2l-4.8-4.8l-55.9,56L9.4,86.9z M42.8,59.2l9-9l4-0.9l2.4,7.2l-1.1,3.9L46.4,71.3l-4.8-8.5
		L42.8,59.2z"/>
	<path class="st3" d="M10.2,79.1l68.7-68.7V7.1l-4.8-4.8L5.5,70.9L10.2,79.1z"/>
	<path class="st1" d="M70.9,27.9l11.2-11.2v-3.2l-3.2-3.2L66.2,23.1L70.9,27.9z"/>
	<path class="st1" d="M46.7,79l10.6,16.9l-17.6,17.6L19.8,82.2L38,64.1C37.9,64.1,46.3,78.5,46.7,79L46.7,79z"/>
	<polygon class="st1" points="29.2,60.1 20,69.2 18.1,66 27.2,56.8 	"/>
</g>
<g>
	<g>
		<g>
			<path class="st3" d="M115.7,58.7l8.8-5l8.8-5l5-5c0.1-0.1,0.2,0,0.2,0.1l-7.6,25.1L94,105.7L81.4,93.1L115.7,58.7z"/>
		</g>
		<path class="st1" d="M70,94.3l6.3-6.3l22.8,22.8l0,0l-6.3,6.3L70,94.3z"/>
		<path class="st2" d="M87.7,112.1l-23.8,23.8l-12.7-12.7L75,99.4L87.7,112.1z"/>
	</g>
	<polygon class="st4" points="118.9,75.2 127.9,56.9 127.3,56.6 117.1,74.1 	"/>
	
		<rect x="48.9" y="120.6" transform="matrix(0.7071 -0.7071 0.7071 0.7071 -78.369 77.1595)" class="st1" width="10.1" height="25.1"/>
	
		<rect x="75.4" y="100.9" transform="matrix(0.7071 -0.7071 0.7071 0.7071 -55.0122 86.8222)" class="st1" width="3.8" height="17.9"/>
	<rect x="70" y="106.3" transform="matrix(0.7071 -0.7071 0.7071 0.7071 -60.414 84.5727)" class="st1" width="3.8" height="17.9"/>
	
		<rect x="64.8" y="111.4" transform="matrix(0.7071 -0.7071 0.7071 0.7071 -65.5778 82.4481)" class="st1" width="3.8" height="17.9"/>
	
		<rect x="59.4" y="116.8" transform="matrix(0.7071 -0.7071 0.7071 0.7071 -70.9569 80.208)" class="st1" width="3.8" height="17.9"/>
</g>
</svg>
