<?xml version="1.0" encoding="utf-8"?>
<!-- Generator: Adobe Illustrator 22.1.0, SVG Export Plug-In . SVG Version: 6.00 Build 0)  -->
<svg version="1.1" id="Слой_1" xmlns="http://www.w3.org/2000/svg" xmlns:xlink="http://www.w3.org/1999/xlink" x="0px" y="0px"
	 viewBox="0 0 146 145" style="enable-background:new 0 0 146 145;" xml:space="preserve">
<style type="text/css">
	.st0{fill:#FB5757;}
	.st1{fill:#D3D3D3;}
	.st2{fill:#3D3D3D;}
	.st3{fill:#575757;}
</style>
<g>
	<path class="st0" d="M108.5,37v71h-71V37H108.5 M117.5,28h-89v89h89V28L117.5,28z"/>
</g>
<polygon class="st1" points="23.3,98.1 28.6,107.3 107,29 107,25.3 101.4,19.9 "/>
<polygon class="st2" points="49.9,85.4 39.5,95.8 37.4,92.1 47.9,81.7 "/>
<polygon class="st3" points="28.3,107 27.4,115.9 29.8,120.1 97.5,52.3 97.5,48.7 92,43.3 "/>
<polygon class="st2" points="30.7,105.1 35.8,114 38.6,111.2 33.7,102.3 "/>
<polygon class="st2" points="36.5,99.5 41.5,108.4 44.3,105.5 39.3,96.6 "/>
<polygon class="st2" points="42.1,93.8 47.1,102.7 49.9,99.9 44.9,90.9 "/>
<polygon class="st2" points="47.8,88.1 52.8,97 55.7,94.2 50.6,85.3 "/>
<polygon class="st2" points="53.5,82.5 58.5,91.4 61.3,88.5 56.3,79.6 "/>
<polygon class="st2" points="118.6,62.6 121.8,67 122.7,62.6 "/>
<path class="st3" d="M106.3,112.8l-2.8-4.7l6.3-32.2h5.5l-6.6,32.2l-2.1,10.1h-1.5L106.3,112.8z M101.6,62.6l-10.4,55.6l2.7,7H117
	l1.4-7h-7L121.8,67l-3.2-4.4C118.6,62.6,101.6,62.6,101.6,62.6z"/>
</svg>
